<?xml version="1.0" encoding="UTF-8"?>
<!DOCTYPE svg PUBLIC "-//W3C//DTD SVG 1.1//EN" "http://www.w3.org/Graphics/SVG/1.1/DTD/svg11.dtd">
<!-- Creator: CorelDRAW X7 -->
<svg xmlns="http://www.w3.org/2000/svg" xml:space="preserve" width="3.48515in" height="3.32178in" version="1.1" style="shape-rendering:geometricPrecision; text-rendering:geometricPrecision; image-rendering:optimizeQuality; fill-rule:evenodd; clip-rule:evenodd"
viewBox="0 0 1948 1857"
 xmlns:xlink="http://www.w3.org/1999/xlink">
 <defs>
  <style type="text/css">
   <![CDATA[
    .fil0 {fill:#373435;fill-opacity:0.478431}
   ]]>
  </style>
 </defs>
 <g id="Layer_x0020_1">
  <metadata id="CorelCorpID_0Corel-Layer"/>
  <path class="fil0" d="M974 0c538,0 974,416 974,928 0,513 -436,929 -974,929 -538,0 -974,-416 -974,-929 0,-512 436,-928 974,-928zm-495 548l990 0c41,0 76,34 76,76l0 0c0,42 -35,76 -76,76l-990 0c-41,0 -76,-34 -76,-76l0 0c0,-42 35,-76 76,-76zm0 304l990 0c41,0 76,35 76,76l0 0c0,42 -35,76 -76,76l-990 0c-41,0 -76,-34 -76,-76l0 0c0,-41 35,-76 76,-76zm0 305l990 0c41,0 76,34 76,76l0 0c0,42 -35,76 -76,76l-990 0c-41,0 -76,-34 -76,-76l0 0c0,-42 35,-76 76,-76z"/>
 </g>
</svg>
